<svg width="17" height="17" viewBox="0 0 17 17" fill="none" xmlns="http://www.w3.org/2000/svg">
<path d="M7.80611 0.821777H6.08069C4.24024 0.821777 3.32002 0.821777 2.6167 1.18001C1.99833 1.49509 1.49558 1.99785 1.1805 2.61622C0.822266 3.31953 0.822266 4.23975 0.822266 6.0802V10.3527C0.822266 12.1931 0.822266 13.1134 1.1805 13.8167C1.49558 14.435 1.99833 14.9378 2.6167 15.2529C3.32002 15.6111 4.24024 15.6111 6.08069 15.6111H10.3532C12.1936 15.6111 13.1138 15.6111 13.8172 15.2529C14.4355 14.9378 14.9383 14.435 15.2534 13.8167C15.6116 13.1134 15.6116 12.1931 15.6116 10.3527V8.62725M15.6116 3.08126C15.6116 3.68051 15.3735 4.25522 14.9498 4.67895C14.5261 5.10269 13.9514 5.34074 13.3521 5.34074C12.7529 5.34074 12.1782 5.10269 11.7544 4.67895C11.3307 4.25522 11.0926 3.68051 11.0926 3.08126C11.0926 2.48201 11.3307 1.9073 11.7544 1.48356C12.1782 1.05983 12.7529 0.821777 13.3521 0.821777C13.9514 0.821777 14.5261 1.05983 14.9498 1.48356C15.3735 1.9073 15.6116 2.48201 15.6116 3.08126Z" stroke="white" stroke-width="1.64326" stroke-linecap="round" stroke-linejoin="round"/>
</svg>
