<svg width="18" height="18" viewBox="0 0 18 18" fill="none" xmlns="http://www.w3.org/2000/svg">
<path fill-rule="evenodd" clip-rule="evenodd" d="M1.23949 0C0.910754 0 0.595486 0.130588 0.363037 0.363037C0.130588 0.595486 0 0.910754 0 1.23949L0 8.6764C0 9.00514 0.130588 9.32041 0.363037 9.55285C0.595486 9.7853 0.910754 9.91589 1.23949 9.91589H6.19743C6.52616 9.91589 6.84143 9.7853 7.07388 9.55285C7.30633 9.32041 7.43692 9.00514 7.43692 8.6764V1.23949C7.43692 0.910754 7.30633 0.595486 7.07388 0.363037C6.84143 0.130588 6.52616 0 6.19743 0L1.23949 0ZM9.91589 1.23949C9.91589 0.910754 10.0465 0.595486 10.2789 0.363037C10.5114 0.130588 10.8266 0 11.1554 0L16.1133 0C16.4421 0 16.7573 0.130588 16.9898 0.363037C17.2222 0.595486 17.3528 0.910754 17.3528 1.23949V3.73085C17.3528 4.05959 17.2222 4.37485 16.9898 4.6073C16.7573 4.83975 16.4421 4.97034 16.1133 4.97034H11.1554C10.8266 4.97034 10.5114 4.83975 10.2789 4.6073C10.0465 4.37485 9.91589 4.05959 9.91589 3.73085V1.23949ZM9.91589 8.6764C9.91589 8.34767 10.0465 8.0324 10.2789 7.79996C10.5114 7.56751 10.8266 7.43692 11.1554 7.43692H16.1133C16.4421 7.43692 16.7573 7.56751 16.9898 7.79996C17.2222 8.0324 17.3528 8.34767 17.3528 8.6764V16.1133C17.3528 16.4421 17.2222 16.7573 16.9898 16.9898C16.7573 17.2222 16.4421 17.3528 16.1133 17.3528H11.1554C10.8266 17.3528 10.5114 17.2222 10.2789 16.9898C10.0465 16.7573 9.91589 16.4421 9.91589 16.1133V8.6764ZM0 13.622C0 13.2932 0.130588 12.978 0.363037 12.7455C0.595486 12.5131 0.910754 12.3825 1.23949 12.3825H6.19743C6.52616 12.3825 6.84143 12.5131 7.07388 12.7455C7.30633 12.978 7.43692 13.2932 7.43692 13.622V16.1133C7.43692 16.4421 7.30633 16.7573 7.07388 16.9898C6.84143 17.2222 6.52616 17.3528 6.19743 17.3528H1.23949C0.910754 17.3528 0.595486 17.2222 0.363037 16.9898C0.130588 16.7573 0 16.4421 0 16.1133V13.622Z" fill="black"/>
</svg>
