<svg width="18" height="15" viewBox="0 0 18 15" fill="none" xmlns="http://www.w3.org/2000/svg">
<path d="M6.29935 7.16677C6.29935 7.85681 6.57347 8.5186 7.06141 9.00654C7.54935 9.49447 8.21113 9.76859 8.90118 9.76859C9.59123 9.76859 10.253 9.49447 10.7409 9.00654C11.2289 8.5186 11.503 7.85681 11.503 7.16677C11.503 6.47672 11.2289 5.81494 10.7409 5.327C10.253 4.83906 9.59123 4.56494 8.90118 4.56494C8.21113 4.56494 7.54935 4.83906 7.06141 5.327C6.57347 5.81494 6.29935 6.47672 6.29935 7.16677ZM1.0957 4.56494H3.69753V9.76859H1.0957V4.56494ZM14.1048 4.56494H16.7067V9.76859H14.1048V4.56494Z" stroke="black" stroke-width="2.19101" stroke-linecap="round" stroke-linejoin="round"/>
<path d="M8.90118 1.0957V13.2376M1.0957 2.83025C1.0957 2.37022 1.27845 1.92903 1.60374 1.60374C1.92903 1.27845 2.37022 1.0957 2.83025 1.0957H14.9721C15.4321 1.0957 15.8733 1.27845 16.1986 1.60374C16.5239 1.92903 16.7067 2.37022 16.7067 2.83025V11.503C16.7067 11.963 16.5239 12.4042 16.1986 12.7295C15.8733 13.0548 15.4321 13.2376 14.9721 13.2376H2.83025C2.37022 13.2376 1.92903 13.0548 1.60374 12.7295C1.27845 12.4042 1.0957 11.963 1.0957 11.503V2.83025Z" stroke="black" stroke-width="2.19101" stroke-linecap="round" stroke-linejoin="round"/>
</svg>
