<svg width="11" height="14" viewBox="0 0 11 14" fill="none" xmlns="http://www.w3.org/2000/svg">
<path fill-rule="evenodd" clip-rule="evenodd" d="M0.547753 0C0.40248 0 0.263157 0.0577096 0.160433 0.160433C0.0577096 0.263157 0 0.40248 0 0.547753V12.4997C0 12.645 0.0577096 12.7843 0.160433 12.887C0.263157 12.9898 0.40248 13.0475 0.547753 13.0475H10.4073C10.5526 13.0475 10.6919 12.9898 10.7946 12.887C10.8973 12.7843 10.9551 12.645 10.9551 12.4997V4.73149C10.9552 4.65794 10.9405 4.58511 10.9119 4.51736C10.8833 4.4496 10.8414 4.3883 10.7885 4.33711L6.47553 0.156657C6.37352 0.0571957 6.23677 0.00139512 6.0943 0.00109556L0.547753 0ZM9.05545 4.18374L6.64205 1.84264V4.18374H9.05545ZM4.38202 4.88048H2.19101V3.78497H4.38202V4.88048ZM8.76404 7.61924H2.19101V6.52374H8.76404V7.61924ZM2.19101 10.358H8.76404V9.2625H2.19101V10.358Z" fill="black"/>
</svg>
